<?xml version="1.0" encoding="UTF-8" standalone="no"?>
<!-- Created with Inkscape (http://www.inkscape.org/) -->

<svg
   xmlns:dc="http://purl.org/dc/elements/1.1/"
   xmlns:cc="http://creativecommons.org/ns#"
   xmlns:rdf="http://www.w3.org/1999/02/22-rdf-syntax-ns#"
   xmlns:svg="http://www.w3.org/2000/svg"
   xmlns="http://www.w3.org/2000/svg"
   xmlns:sodipodi="http://sodipodi.sourceforge.net/DTD/sodipodi-0.dtd"
   xmlns:inkscape="http://www.inkscape.org/namespaces/inkscape"
   width="64"
   height="64"
   id="svg6021"
   version="1.1"
   inkscape:version="0.91 r13725"
   viewBox="0 0 64 64"
   sodipodi:docname="germ.svg">
  <defs
     id="defs6023" />
  <sodipodi:namedview
     id="base"
     pagecolor="#ffffff"
     bordercolor="#666666"
     borderopacity="1.0"
     inkscape:pageopacity="0.0"
     inkscape:pageshadow="2"
     inkscape:zoom="3.8890873"
     inkscape:cx="30.518943"
     inkscape:cy="52.689584"
     inkscape:current-layer="layer1"
     showgrid="true"
     inkscape:document-units="px"
     inkscape:grid-bbox="true"
     inkscape:snap-bbox="true"
     inkscape:bbox-paths="true"
     inkscape:bbox-nodes="true"
     inkscape:snap-bbox-edge-midpoints="true"
     inkscape:snap-bbox-midpoints="true"
     inkscape:snap-center="true"
     inkscape:snap-smooth-nodes="true"
     inkscape:object-nodes="true"
     inkscape:snap-intersection-paths="true"
     inkscape:object-paths="true"
     inkscape:window-width="1040"
     inkscape:window-height="1032"
     inkscape:window-x="0"
     inkscape:window-y="16"
     inkscape:window-maximized="0">
    <inkscape:grid
       type="xygrid"
       id="grid6569" />
  </sodipodi:namedview>
  <metadata
     id="metadata6026">
    <rdf:RDF>
      <cc:Work
         rdf:about="">
        <dc:format>image/svg+xml</dc:format>
        <dc:type
           rdf:resource="http://purl.org/dc/dcmitype/StillImage" />
        <dc:title></dc:title>
      </cc:Work>
    </rdf:RDF>
  </metadata>
  <g
     id="layer1"
     inkscape:label="Layer 1"
     inkscape:groupmode="layer">
    <path
       style="fill:#f57900;fill-rule:evenodd;stroke:#000000;stroke-width:1px;stroke-linecap:butt;stroke-linejoin:miter;stroke-opacity:1"
       d="m 8,28 c 3.104082,-4.851399 9.406542,-18.9763254 16,-20 6.593458,-1.0236746 6.923159,7.120621 12,8 5.076841,0.879379 12.148406,-5.771483 16,-4 3.851594,1.771483 2.738493,2.65617 4,8 1.261507,5.34383 2.886638,19.329321 0,24 -2.886638,4.670679 -6.515312,1.597724 -8,4 -1.484688,2.402276 3.482997,3.88846 0,8 -3.482997,4.11154 -18.342609,5.812996 -24,4 -5.657391,-1.812996 -5.026077,-6.768161 -8,-8 -2.973923,-1.231839 -4.78249,2.512156 -8,0 C 4.7824899,49.487844 3.537405,40.214135 4,36 4.462595,31.785865 4.8959179,32.851399 8,28 Z"
       id="path6571"
       inkscape:connector-curvature="0"
       sodipodi:nodetypes="zzzzzzzzzzzzz" />
    <path
       style="fill:#555753;fill-rule:evenodd;stroke:#000000;stroke-width:1px;stroke-linecap:butt;stroke-linejoin:miter;stroke-opacity:1"
       d="m 14.077161,36 c -2.102881,-0.871042 -2.102881,-7.128958 0,-8 2.102881,-0.871042 4,2.114382 4,4 0,1.885618 -1.897119,4.871042 -4,4 z"
       id="path6575"
       inkscape:connector-curvature="0"
       sodipodi:nodetypes="zzzz" />
    <path
       style="fill:#555753;fill-rule:evenodd;stroke:#000000;stroke-width:1px;stroke-linecap:butt;stroke-linejoin:miter;stroke-opacity:1"
       d="m 30,51.447117 c -0.389807,-2.402098 1.597902,-3.610193 4,-4 2.402098,-0.389807 7.610193,1.597902 8,4 0.389807,2.402098 -1.597902,3.610193 -4,4 -2.402098,0.389807 -7.610193,-1.597902 -8,-4 z"
       id="path6577"
       inkscape:connector-curvature="0"
       sodipodi:nodetypes="zzzzz" />
    <path
       style="fill:#555753;fill-rule:evenodd;stroke:#000000;stroke-width:1px;stroke-linecap:butt;stroke-linejoin:miter;stroke-opacity:1"
       d="m 38.826772,41.149421 c -1.885618,-1.885618 -2.791905,-5.987709 0,-8 2.791905,-2.012291 11.299025,1.030623 12,4 0.700975,2.969377 -1.897119,3.128958 -4,4 -2.102881,0.871042 -6.114382,1.885618 -8,0 z"
       id="path6579"
       inkscape:connector-curvature="0"
       sodipodi:nodetypes="zzzzz" />
    <path
       style="fill:#555753;fill-rule:evenodd;stroke:#000000;stroke-width:1px;stroke-linecap:butt;stroke-linejoin:miter;stroke-opacity:1"
       d="m 12,44 c -1.134201,-1.835176 -0.942809,-3.057191 0,-4 0.942809,-0.942809 2.164824,-1.134201 4,0 1.835176,1.134201 6.108185,5.891815 4,8 -2.108185,2.108185 -6.865799,-2.164824 -8,-4 z"
       id="path6583"
       inkscape:connector-curvature="0"
       sodipodi:nodetypes="zzzzz" />
    <path
       style="fill:#555753;fill-rule:evenodd;stroke:#000000;stroke-width:1px;stroke-linecap:butt;stroke-linejoin:miter;stroke-opacity:1"
       d="m 48,28 c -2.402098,0.389807 -4.389807,-1.597902 -4,-4 0.389807,-2.402098 5.891815,-6.108185 8,-4 2.108185,2.108185 -1.597902,7.610193 -4,8 z"
       id="path6585"
       inkscape:connector-curvature="0"
       sodipodi:nodetypes="zzzz" />
    <path
       style="fill:#555753;fill-rule:evenodd;stroke:#000000;stroke-width:1px;stroke-linecap:butt;stroke-linejoin:miter;stroke-opacity:1"
       d="m 21.951613,23.065831 c 0.871042,-2.102881 5.597724,-1.484688 8,0 2.402276,1.484688 4.942809,5.171573 4,8 -0.942809,2.828427 -5.597724,5.484688 -8,4 -2.402276,-1.484688 0.871042,-5.897119 0,-8 -0.871042,-2.102881 -4.871042,-1.897119 -4,-4 z"
       id="path6587"
       inkscape:connector-curvature="0"
       sodipodi:nodetypes="zzzzzz" />
  </g>
</svg>
